<?xml version="1.0" encoding="UTF-8"?>
<svg width="500px" height="500px" viewBox="0 0 500 500" version="1.1" xmlns="http://www.w3.org/2000/svg" xmlns:xlink="http://www.w3.org/1999/xlink">
    <!-- Generator: Sketch 64 (93537) - https://sketch.com -->
    <title>Artboard</title>
    <desc>Created with Sketch.</desc>
    <g id="Artboard" stroke="none" stroke-width="1" fill="none" fill-rule="evenodd">
        <rect fill="#FFFFFF" x="0" y="0" width="500" height="500"></rect>
        <path d="M249.873979,358 L249.873979,331.031505 C224.165694,331.031505 204.254376,323.932322 190.140023,309.733956 C176.025671,295.535589 168.968495,275.582264 168.968495,249.873979 C168.968495,224.165694 176.025671,204.254376 190.140023,190.140023 C204.254376,176.025671 224.165694,168.968495 249.873979,168.968495 C275.582264,168.968495 295.535589,176.025671 309.733956,190.140023 C323.932322,204.254376 331.031505,224.165694 331.031505,249.873979 C331.031505,263.988331 329.14119,272.97783 325.36056,276.842474 C321.57993,280.707118 317.337223,282.63944 312.632439,282.63944 C307.591599,282.63944 303.306884,280.875146 299.778296,277.346558 C296.249708,273.81797 294.485414,269.533256 294.485414,264.492415 L294.485414,264.492415 L294.485414,249.873979 C294.485414,236.599767 290.368728,225.929988 282.135356,217.864644 C273.901984,209.7993 263.148191,205.766628 249.873979,205.766628 C236.599767,205.766628 225.887981,209.7993 217.738623,217.864644 C209.589265,225.929988 205.514586,236.599767 205.514586,249.873979 C205.514586,263.148191 209.589265,273.901984 217.738623,282.135356 C225.887981,290.368728 236.599767,294.485414 249.873979,294.485414 C258.443407,294.485414 266.508751,292.385064 274.070012,288.184364 C278.102684,294.905484 283.521587,300.198366 290.326721,304.063011 C297.131855,307.927655 304.567095,309.859977 312.632439,309.859977 C323.554259,309.859977 333.845974,305.743291 343.507585,297.509918 C353.169195,289.276546 358,273.3979 358,249.873979 C358,227.86231 353.631272,208.749125 344.893816,192.534422 C336.156359,176.31972 323.638273,163.843641 307.339557,155.106184 C291.04084,146.368728 271.885648,142 249.873979,142 C227.86231,142 208.749125,146.368728 192.534422,155.106184 C176.31972,163.843641 163.843641,176.31972 155.106184,192.534422 C146.368728,208.749125 142,227.86231 142,249.873979 C142,271.885648 146.368728,291.04084 155.106184,307.339557 C163.843641,323.638273 176.31972,336.156359 192.534422,344.893816 C208.749125,353.631272 227.86231,358 249.873979,358 L249.873979,358 Z M250.372263,268 C238.790754,268 233,262.082126 233,250.246377 C233,238.748792 238.790754,233 250.372263,233 C262.124088,233 268,238.748792 268,250.246377 C268,262.082126 262.124088,268 250.372263,268 Z" id="@" fill="#000000" fill-rule="nonzero" transform="translate(250.000000, 250.000000) rotate(-90.000000) translate(-250.000000, -250.000000) "></path>
    </g>
</svg>